<?xml version="1.0" encoding="utf-8"?>
<!-- Generator: Adobe Illustrator 25.2.1, SVG Export Plug-In . SVG Version: 6.00 Build 0)  -->
<svg version="1.1" xmlns="http://www.w3.org/2000/svg" xmlns:xlink="http://www.w3.org/1999/xlink" x="0px" y="0px"
	 viewBox="0 0 452.8 60.1" style="enable-background:new 0 0 452.8 60.1;" xml:space="preserve">
<style type="text/css">
	.st0{opacity:0.35;fill:#FD591F;}
	.st1{clip-path:url(#SVGID_2_);}
	.st2{fill:#075063;}
	.st3{font-family:'Poppins-Regular';}
	.st4{font-size:9px;}
	.st5{fill:none;}
	.st6{font-family:'Poppins-Medium';}
	.st7{font-size:8px;}
	.st8{font-size:11px;}
	.st9{fill:none;stroke:#075063;stroke-width:0.5;stroke-miterlimit:10;}
</style>
<g id="Ebene_2">
	<path id="Shape-7_22_" class="st0" d="M452.8,1H0V0h452.8V1z"/>
	<path id="Shape-8_16_" class="st0" d="M452.8,30.1H112v-1h340.8V30.1z"/>
	<path id="Shape-10_15_" class="st0" d="M452.8,60.1H0v-1h452.8V60.1z"/>
	<g>
		<defs>
			<rect id="SVGID_1_" x="114" width="354.7" height="60.1"/>
		</defs>
		<clipPath id="SVGID_2_">
			<use xlink:href="#SVGID_1_"  style="overflow:visible;"/>
		</clipPath>
		<g class="st1">
			<g>
				<path id="Shape-13_52_" class="st0" d="M114-172.3V0h1v-172.3H114z"/>
			</g>
			<g>
				<path id="Shape-13_51_" class="st0" d="M139.9-172.3V0h1v-172.3H139.9z"/>
			</g>
			<g>
				<path id="Shape-13_50_" class="st0" d="M165.9-172.3V0h1v-172.3H165.9z"/>
			</g>
			<g>
				<path id="Shape-13_49_" class="st0" d="M191.9-172.3V0h1v-172.3H191.9z"/>
			</g>
			<g>
				<path id="Shape-13_48_" class="st0" d="M217.9-172.3V0h1v-172.3H217.9z"/>
			</g>
			<g>
				<path id="Shape-13_47_" class="st0" d="M243.8-172.3V0h1v-172.3H243.8z"/>
			</g>
			<g>
				<path id="Shape-13_46_" class="st0" d="M269.8-172.3V0h1v-172.3H269.8z"/>
			</g>
			<g>
				<path id="Shape-13_45_" class="st0" d="M295.8-172.3V0h1v-172.3H295.8z"/>
			</g>
			<g>
				<path id="Shape-13_44_" class="st0" d="M321.8-172.3V0h1v-172.3H321.8z"/>
			</g>
			<g>
				<path id="Shape-13_43_" class="st0" d="M347.7-172.3V0h1v-172.3H347.7z"/>
			</g>
			<g>
				<path id="Shape-13_42_" class="st0" d="M373.7-172.3V0h1v-172.3H373.7z"/>
			</g>
			<g>
				<path id="Shape-13_41_" class="st0" d="M399.7-172.3V0h1v-172.3H399.7z"/>
			</g>
			<g>
				<path id="Shape-13_40_" class="st0" d="M425.7-172.3V0h1v-172.3H425.7z"/>
			</g>
			<g>
				<path id="Shape-13_39_" class="st0" d="M451.7-172.3V0h1v-172.3H451.7z"/>
			</g>
			<g>
				<path id="Shape-13_35_" class="st0" d="M114.9,0v172.3h-1V0H114.9z"/>
			</g>
			<g>
				<path id="Shape-13_34_" class="st0" d="M140.9,0v172.3h-1V0H140.9z"/>
			</g>
			<g>
				<path id="Shape-13_33_" class="st0" d="M166.9,0v172.3h-1V0H166.9z"/>
			</g>
			<g>
				<path id="Shape-13_32_" class="st0" d="M192.9,0v172.3h-1V0H192.9z"/>
			</g>
			<g>
				<path id="Shape-13_31_" class="st0" d="M218.8,0v172.3h-1V0H218.8z"/>
			</g>
			<g>
				<path id="Shape-13_30_" class="st0" d="M244.8,0v172.3h-1V0H244.8z"/>
			</g>
			<g>
				<path id="Shape-13_29_" class="st0" d="M270.8,0v172.3h-1V0H270.8z"/>
			</g>
			<g>
				<path id="Shape-13_28_" class="st0" d="M296.8,0v172.3h-1V0H296.8z"/>
			</g>
			<g>
				<path id="Shape-13_27_" class="st0" d="M322.7,0v172.3h-1V0H322.7z"/>
			</g>
			<g>
				<path id="Shape-13_26_" class="st0" d="M348.7,0v172.3h-1V0H348.7z"/>
			</g>
			<g>
				<path id="Shape-13_25_" class="st0" d="M374.7,0v172.3h-1V0H374.7z"/>
			</g>
			<g>
				<path id="Shape-13_24_" class="st0" d="M400.7,0v172.3h-1V0H400.7z"/>
			</g>
			<g>
				<path id="Shape-13_23_" class="st0" d="M426.7,0v172.3h-1V0H426.7z"/>
			</g>
			<g>
				<path id="Shape-13_22_" class="st0" d="M452.6,0v172.3h-1V0H452.6z"/>
			</g>
		</g>
	</g>
</g>
<g id="Ebene_1">
	<text transform="matrix(0 -1 1 0 128.8347 53.9035)" class="st2 st3 st4">hart</text>
	<text transform="matrix(0 -1 1 0 155.742 53.9835)" class="st2 st3 st4">hart</text>
	<text transform="matrix(0 -1 1 0 181.4164 53.8546)" class="st2 st3 st4">hart</text>
	<text transform="matrix(0 -1 1 0 208.3236 53.9347)" class="st2 st3 st4">hart</text>
	<text transform="matrix(0 -1 1 0 389.0583 53.9103)" class="st2 st3 st4">hart</text>
	<text transform="matrix(0 -1 1 0 414.7327 53.7814)" class="st2 st3 st4">hart</text>
	<text transform="matrix(0 -1 1 0 441.6399 53.8615)" class="st2 st3 st4">hart</text>
	<text transform="matrix(0 -1 1 0 234.1973 57.8634)" class="st2 st3 st4">weich</text>
	<text transform="matrix(0 -1 1 0 259.5427 57.8634)" class="st2 st3 st4">weich</text>
	<text transform="matrix(0 -1 1 0 285.1018 57.8634)" class="st2 st3 st4">weich</text>
	<text transform="matrix(0 -1 1 0 312.0649 57.8634)" class="st2 st3 st4">weich</text>
	<text transform="matrix(0 -1 1 0 337.4104 57.8634)" class="st2 st3 st4">weich</text>
	<text transform="matrix(0 -1 1 0 362.9694 57.8634)" class="st2 st3 st4">weich</text>
	<rect x="7.1" y="7.8" class="st5" width="39.7" height="44.7"/>
	<text transform="matrix(0 -1 1 0 13.7716 47.4713)"><tspan x="0" y="0" class="st2 st6 st4">Mutter</tspan><tspan x="29.5" y="0" class="st2 st6 st4">-</tspan><tspan x="3.8" y="10.8" class="st2 st6 st4">mund</tspan></text>
	<rect x="42.7" y="6.7" class="st5" width="67.1" height="15.6"/>
	<text transform="matrix(1 0 0 1 82.9946 12.6676)"><tspan x="0" y="0" class="st2 st3 st7">Lage +  </tspan><tspan x="-5.5" y="9.6" class="st2 st3 st7">Öffnung</tspan></text>
	<rect x="40.4" y="40.1" class="st5" width="67.1" height="7.8"/>
	<text transform="matrix(1 0 0 1 70.1346 47.0076)" class="st2 st3 st7">Festigkeit</text>
	<text transform="matrix(1 0 0 1 383.2738 11.4544)" class="st2 st3 st8">3</text>
	<circle id="Ellipse_142_99_" class="st2" cx="386.5" cy="23.8" r="2.5"/>
	<text transform="matrix(1 0 0 1 409.5807 11.4542)" class="st2 st3 st8">2</text>
	<text transform="matrix(1 0 0 1 438.2391 11.4542)" class="st2 st3 st8">1</text>
	<circle id="Ellipse_142_98_" class="st2" cx="440" cy="23.8" r="2.5"/>
	<circle id="Ellipse_142_97_" class="st2" cx="412.7" cy="23.8" r="2.5"/>
	<circle id="Ellipse_142_43_" class="st2" cx="128" cy="24.4" r="2.5"/>
	<circle id="Ellipse_142_42_" class="st2" cx="179.5" cy="24.4" r="2.5"/>
	<circle id="Ellipse_142_41_" class="st2" cx="205.9" cy="24.4" r="2.5"/>
	<circle id="Ellipse_142_40_" class="st2" cx="153.2" cy="24.4" r="2.5"/>
	<g id="Ellipse_152_6_" transform="translate(26)">
		<circle class="st9" cx="256.8" cy="7.2" r="4.5"/>
		<circle class="st9" cx="256.8" cy="7.2" r="4"/>
	</g>
	<g id="Ellipse_152_5_" transform="translate(26)">
		<circle class="st9" cx="283.7" cy="7.2" r="4.5"/>
		<circle class="st9" cx="283.7" cy="7.2" r="4"/>
	</g>
	<g id="Ellipse_152_4_" transform="translate(26)">
		<circle class="st9" cx="309.1" cy="7.2" r="4.5"/>
		<circle class="st9" cx="309.1" cy="7.2" r="4"/>
	</g>
	<g id="Ellipse_155_6_" transform="translate(0 5)">
		<circle class="st9" cx="231.3" cy="16.9" r="3"/>
		<circle class="st9" cx="231.3" cy="16.9" r="2.5"/>
	</g>
	<g id="Ellipse_155_5_" transform="translate(0 5)">
		<circle class="st9" cx="257.1" cy="10" r="3"/>
		<circle class="st9" cx="257.1" cy="10" r="2.5"/>
	</g>
	<g id="Ellipse_155_4_" transform="translate(0 5)">
		<circle class="st9" cx="361" cy="12.5" r="3"/>
		<circle class="st9" cx="361" cy="12.5" r="2.5"/>
	</g>
</g>
</svg>
