<?xml version="1.0" encoding="utf-8"?>
<!-- Generator: Adobe Illustrator 25.2.1, SVG Export Plug-In . SVG Version: 6.00 Build 0)  -->
<svg version="1.1" xmlns="http://www.w3.org/2000/svg" xmlns:xlink="http://www.w3.org/1999/xlink" x="0px" y="0px"
	 viewBox="0 0 295.1 229" style="enable-background:new 0 0 295.1 229;" xml:space="preserve">
<style type="text/css">
	.st0{opacity:0.35;fill:#FD591F;}
	.st1{clip-path:url(#SVGID_2_);}
	.st2{fill:#FD591F;}
	.st3{clip-path:url(#SVGID_4_);}
	.st4{clip-path:url(#SVGID_6_);}
	.st5{clip-path:url(#SVGID_8_);}
	.st6{clip-path:url(#SVGID_10_);}
	.st7{clip-path:url(#SVGID_12_);}
	.st8{clip-path:url(#SVGID_14_);}
	.st9{clip-path:url(#SVGID_16_);}
	.st10{clip-path:url(#SVGID_18_);}
	.st11{fill:none;stroke:#F95A2E;}
	.st12{clip-path:url(#SVGID_20_);}
	.st13{clip-path:url(#SVGID_22_);}
	.st14{clip-path:url(#SVGID_24_);}
	.st15{opacity:0.3;fill:#FD591F;}
	.st16{opacity:0.502;fill:#F3D7C8;enable-background:new    ;}
	.st17{fill:#F3D7C8;}
	.st18{opacity:0.35;}
	.st19{fill:none;stroke:#FD591F;}
	.st20{fill:none;stroke:#075063;}
	.st21{fill:#075063;}
	.st22{opacity:0.3;fill:#075063;enable-background:new    ;}
	.st23{fill:#DC000C;stroke:#DC000C;stroke-miterlimit:10;}
	.st24{fill:none;stroke:#DC000C;stroke-miterlimit:10;}
	.st25{fill:none;}
	.st26{fill:#84A9B2;}
	.st27{fill:#FFFFFF;}
	.st28{fill:none;stroke:#84A9B2;}
	.st29{fill:#B61747;}
	.st30{fill:#DC000C;}
	.st31{clip-path:url(#SVGID_26_);}
	.st32{fill:none;stroke:#84A8B0;stroke-dasharray:4,3;}
	.st33{fill:none;stroke:#075063;stroke-width:0.75;}
	.st34{fill:#F95A2E;}
	.st35{fill:none;stroke:#075063;stroke-width:0.5;stroke-miterlimit:10;}
	.st36{font-family:'Poppins-Regular';}
	.st37{font-size:9px;}
	.st38{fill:none;stroke:#075063;stroke-width:0.75;stroke-miterlimit:10;}
	.st39{clip-path:url(#SVGID_28_);}
	.st40{font-family:'Poppins-Medium';}
</style>
<g id="Ebene_2">
	<path id="Shape-10_35_" class="st0" d="M294.2,76.8H0v-1h294.2V76.8z"/>
	<path id="Shape-10_34_" class="st0" d="M148.7,105.8H0v-1h148.7V105.8z"/>
	<path id="Shape-10_33_" class="st0" d="M148.7,90.8H0v-1h148.7V90.8z"/>
	<path id="Shape-10_37_" class="st2" d="M295,33.2H0.8v-1H295V33.2z"/>
	<path id="Shape-10_32_" class="st0" d="M148.7,62.3H0v-1h148.7V62.3z"/>
	<path id="Shape-10_31_" class="st0" d="M148.8,47.9H0.1v-1h148.7V47.9z"/>
	<path id="Shape-10_42_" class="st0" d="M294.2,149.8H0v-1h294.2V149.8z"/>
	<path id="Shape-10_41_" class="st0" d="M148.8,178.8H0v-1h148.8V178.8z"/>
	<path id="Shape-10_40_" class="st0" d="M148.8,163.8H0v-1h148.8V163.8z"/>
	<path id="Shape-10_39_" class="st0" d="M148.7,135.3H0v-1h148.7V135.3z"/>
	<path id="Shape-10_38_" class="st0" d="M148.8,120.9H0.1v-1h148.7V120.9z"/>
	<path id="Shape-10_47_" class="st0" d="M294.6,195.1H0.4v-1h294.2V195.1z"/>
	<path id="Shape-10_43_" class="st0" d="M294.4,193.9H0.2v-1h294.2V193.9z"/>
	<path id="Shape-10_36_" class="st0" d="M148.8,32.8v161.1h-1V32.8H148.8z"/>
	<path id="Shape-10_51_" class="st0" d="M147.8,18V0h1v18H147.8z"/>
</g>
<g id="Ebene_1">
	<rect y="76" class="st15" width="295" height="73.2"/>
	<text transform="matrix(1 0 0 1 59.8734 43.6405)" class="st34 st36 st37">36,60</text>
	<text transform="matrix(1 0 0 1 208.8416 57.6111)" class="st34 st36 st37">36,60</text>
	<text transform="matrix(1 0 0 1 59.8961 57.6109)" class="st34 st36 st37">36,59</text>
	<text transform="matrix(1 0 0 1 59.891 72.2163)" class="st34 st36 st37">36,58</text>
	<text transform="matrix(1 0 0 1 60.2736 85.9153)" class="st34 st36 st37">36,57</text>
	<text transform="matrix(1 0 0 1 59.8732 100.8383)" class="st34 st36 st37">36,56</text>
	<text transform="matrix(1 0 0 1 59.9044 115.7612)" class="st34 st36 st37">36,55</text>
	<text transform="matrix(1 0 0 1 59.9005 131.0016)" class="st34 st36 st37">36,54</text>
	<text transform="matrix(1 0 0 1 60.0809 145.9765)" class="st34 st36 st37">36,53</text>
	<text transform="matrix(1 0 0 1 60.1442 159.9469)" class="st34 st36 st37">36,52</text>
	<text transform="matrix(1 0 0 1 61.2909 174.5524)" class="st34 st36 st37">36,51</text>
	<text transform="matrix(1 0 0 1 59.9049 188.2513)" class="st34 st36 st37">36,50</text>
	<text transform="matrix(1 0 0 1 208.8733 173.2601)" class="st34 st36 st37">36,50</text>
	<text transform="matrix(1 0 0 1 208.8729 112.6392)" class="st34 st36 st37">36,55</text>
	<text transform="matrix(1 0 0 1 121.3663 27.6771)" class="st21 st40 st37">Temperatur</text>
	<text transform="matrix(1 0 0 1 44.9697 12.8141)" class="st21 st40 st37">Gemessene</text>
	<text transform="matrix(1 0 0 1 196.8222 12.8143)" class="st21 st40 st37">Gerundete</text>
	<rect x="1.5" y="198.8" class="st25" width="293.6" height="30.2"/>
	<text transform="matrix(1 0 0 1 1.502 205.4541)"><tspan x="0" y="0" class="st21 st40 st37">Beispiel für das Auf- und Abrunden der ermittelten Temperatur</tspan><tspan x="285" y="0" class="st21 st40 st37">-</tspan><tspan x="0" y="10.8" class="st21 st40 st37">werte bei der Messung mit einem Digitalthermometer.</tspan></text>
</g>
</svg>
