<svg xmlns="http://www.w3.org/2000/svg" xmlns:xlink="http://www.w3.org/1999/xlink" viewBox="0 0 332.13 102.85"><defs><style>.cls-1,.cls-7,.cls-8{fill:none;}.cls-2,.cls-3{fill:#fd591f;}.cls-2{opacity:0.35;}.cls-4{clip-path:url(#clip-path);}.cls-5{font-size:11px;font-family:Poppins-Regular, Poppins;}.cls-5,.cls-6{fill:#075063;}.cls-7{stroke:#075063;}.cls-8{stroke:#84a8b0;stroke-dasharray:4 3;}.cls-9{fill:#f95a2e;}</style><clipPath id="clip-path"><rect class="cls-1" x="8.44" width="323.69" height="102.85"/></clipPath></defs><g id="Ebene_2" data-name="Ebene 2"><path id="Shape-7" class="cls-2" d="M327.6,87.56H0v-1H327.6Z"/><path id="Shape-24" class="cls-3" d="M327.6,87.56H0v-1H327.6Z"/><path id="Shape-28" class="cls-2" d="M327.6,31H0V30H327.6Z"/><path id="Shape-7-2" data-name="Shape-7" class="cls-2" d="M327.6,16.65H0v-1H327.6Z"/><path id="Shape-8" class="cls-2" d="M327.6,45.77H0v-1H327.6Z"/><path id="Shape-9" class="cls-2" d="M327.6,60.77H0v-1H327.6Z"/><path id="Shape-10" class="cls-2" d="M327.6,75.77H0v-1H327.6Z"/><path id="Shape-24-2" data-name="Shape-24" class="cls-3" d="M327.6,16.65H0v-1H327.6Z"/><g class="cls-4"><path id="Shape-13" class="cls-2" d="M8.44-172.33V0h1V-172.33Z"/><path id="Shape-13-2" data-name="Shape-13" class="cls-2" d="M34.42-172.33V0h1V-172.33Z"/><path id="Shape-13-3" data-name="Shape-13" class="cls-2" d="M60.39-172.33V0h1V-172.33Z"/><path id="Shape-13-4" data-name="Shape-13" class="cls-2" d="M86.37-172.33V0h1V-172.33Z"/><path id="Shape-13-5" data-name="Shape-13" class="cls-2" d="M112.35-172.33V0h1V-172.33Z"/><path id="Shape-13-6" data-name="Shape-13" class="cls-2" d="M138.33-172.33V0h1V-172.33Z"/><path id="Shape-13-7" data-name="Shape-13" class="cls-2" d="M164.3-172.33V0h1V-172.33Z"/><path id="Shape-13-8" data-name="Shape-13" class="cls-2" d="M190.28-172.33V0h1V-172.33Z"/><path id="Shape-13-9" data-name="Shape-13" class="cls-2" d="M216.25-172.33V0h1V-172.33Z"/><path id="Shape-13-10" data-name="Shape-13" class="cls-2" d="M242.23-172.33V0h1V-172.33Z"/><path id="Shape-13-11" data-name="Shape-13" class="cls-2" d="M268.21-172.33V0h1V-172.33Z"/><path id="Shape-13-12" data-name="Shape-13" class="cls-2" d="M294.19-172.33V0h1V-172.33Z"/><path id="Shape-13-13" data-name="Shape-13" class="cls-2" d="M320.16-172.33V0h1V-172.33Z"/><path id="Shape-13-14" data-name="Shape-13" class="cls-2" d="M9.42,0V172.33h-1V0Z"/><path id="Shape-13-15" data-name="Shape-13" class="cls-2" d="M35.39,0V172.33h-1V0Z"/><path id="Shape-13-16" data-name="Shape-13" class="cls-2" d="M61.37,0V172.33h-1V0Z"/><path id="Shape-13-17" data-name="Shape-13" class="cls-2" d="M87.35,0V172.33h-1V0Z"/><path id="Shape-13-18" data-name="Shape-13" class="cls-2" d="M113.32,0V172.33h-1V0Z"/><path id="Shape-13-19" data-name="Shape-13" class="cls-2" d="M139.3,0V172.33h-1V0Z"/><path id="Shape-13-20" data-name="Shape-13" class="cls-2" d="M165.28,0V172.33h-1V0Z"/><path id="Shape-13-21" data-name="Shape-13" class="cls-2" d="M191.26,0V172.33h-1V0Z"/><path id="Shape-13-22" data-name="Shape-13" class="cls-2" d="M217.23,0V172.33h-1V0Z"/><path id="Shape-13-23" data-name="Shape-13" class="cls-2" d="M243.21,0V172.33h-1V0Z"/><path id="Shape-13-24" data-name="Shape-13" class="cls-2" d="M269.19,0V172.33h-1V0Z"/><path id="Shape-13-25" data-name="Shape-13" class="cls-2" d="M295.16,0V172.33h-1V0Z"/><path id="Shape-13-26" data-name="Shape-13" class="cls-2" d="M321.14,0V172.33h-1V0Z"/></g></g><g id="Ebene_1" data-name="Ebene 1"><text class="cls-5" transform="translate(70.29 90.58)">6</text><circle id="Ellipse_142" data-name="Ellipse 142" class="cls-6" cx="22.12" cy="60.3" r="2.5"/><circle id="Ellipse_142-2" data-name="Ellipse 142" class="cls-6" cx="47.41" cy="67.8" r="2.5"/><circle id="Ellipse_142-3" data-name="Ellipse 142" class="cls-6" cx="73.78" cy="75.3" r="2.5"/><text class="cls-5" transform="translate(96.41 96.24)">5</text><circle id="Ellipse_142-4" data-name="Ellipse 142" class="cls-6" cx="99.86" cy="80.96" r="2.5"/><text class="cls-5" transform="translate(122.32 90.58)">4</text><circle id="Ellipse_142-5" data-name="Ellipse 142" class="cls-6" cx="125.78" cy="75.3" r="2.5"/><text class="cls-5" transform="translate(148.43 83.08)">3</text><circle id="Ellipse_142-6" data-name="Ellipse 142" class="cls-6" cx="151.67" cy="67.8" r="2.5"/><text class="cls-5" transform="translate(174.74 75.58)">2</text><text class="cls-5" transform="translate(201.51 90.58)">1</text><circle id="Ellipse_142-7" data-name="Ellipse 142" class="cls-6" cx="203.27" cy="75.3" r="2.5"/><circle id="Ellipse_142-8" data-name="Ellipse 142" class="cls-6" cx="203.27" cy="75.3" r="2.5"/><circle id="Ellipse_142-9" data-name="Ellipse 142" class="cls-6" cx="229.89" cy="52.8" r="2.5"/><circle id="Ellipse_142-10" data-name="Ellipse 142" class="cls-6" cx="255.46" cy="45.38" r="2.5"/><circle id="Ellipse_142-11" data-name="Ellipse 142" class="cls-6" cx="280.42" cy="37.88" r="2.5"/><circle id="Ellipse_142-12" data-name="Ellipse 142" class="cls-6" cx="307.86" cy="45.28" r="2.5"/><polyline class="cls-7" points="22.13 60.3 47.41 67.8 73.78 75.3 99.86 80.97 125.78 75.3 151.67 67.8 177.9 60.3 203.28 75.3 229.89 52.98 255.46 45.38 280.43 37.88 307.86 45.28"/><path id="Pfad_1824" data-name="Pfad 1824" class="cls-8" d="M61.17,60.3H320.11"/><path id="Pfad_1824-2" data-name="Pfad 1824" class="cls-8" d="M288.11,30.49h32.05"/><circle id="Ellipse_142-13" data-name="Ellipse 142" class="cls-6" cx="177.9" cy="60.3" r="2.5"/><g id="Polygon_3" data-name="Polygon 3"><path class="cls-1" d="M229.89,62.35l-9.5-15h19Z"/><path class="cls-9" d="M229.89,60.48l7.69-12.13H222.21l7.68,12.13m0,1.87-9.5-15h19Z"/></g><g id="Polygon_4" data-name="Polygon 4"><path class="cls-1" d="M255.46,54.85l-9.5-15h19Z"/><path class="cls-9" d="M255.46,53l7.68-12.13H247.78L255.46,53m0,1.87-9.5-15h19Z"/></g><g id="Polygon_4-2" data-name="Polygon 4"><path class="cls-1" d="M280.42,46.91l-9.5-15h19Z"/><path class="cls-9" d="M280.42,45l7.69-12.13H272.74L280.42,45m0,1.87-9.5-15h19Z"/></g><g id="Polygon_4-3" data-name="Polygon 4"><path class="cls-1" d="M307.86,54.41l-9.5-15h19Z"/><path class="cls-9" d="M307.86,52.54l7.69-12.13H300.18l7.68,12.13m0,1.87-9.5-15h19Z"/></g></g></svg>