<svg xmlns="http://www.w3.org/2000/svg" xmlns:xlink="http://www.w3.org/1999/xlink" viewBox="0 0 255.22 102.85"><defs><style>.cls-1,.cls-7,.cls-8,.cls-9{fill:none;}.cls-2,.cls-3{fill:#fd591f;}.cls-2{opacity:0.35;}.cls-4{clip-path:url(#clip-path);}.cls-5{font-size:11px;font-family:Poppins-Regular, Poppins;}.cls-5,.cls-6{fill:#075063;}.cls-7{stroke:#84a8b0;stroke-dasharray:4 3;}.cls-8,.cls-9{stroke:#075063;}.cls-9{stroke-width:0.75px;}</style><clipPath id="clip-path"><rect class="cls-1" x="8.44" width="246.78" height="102.85"/></clipPath></defs><g id="Ebene_2" data-name="Ebene 2"><path id="Shape-9" class="cls-2" d="M250.2,60.77H0v-1H250.2Z"/><path id="Shape-7" class="cls-2" d="M250.2,87.56H0v-1H250.2Z"/><path id="Shape-24" class="cls-3" d="M250.2,87.56H0v-1H250.2Z"/><path id="Shape-28" class="cls-2" d="M250.2,31H0V30H250.2Z"/><path id="Shape-7-2" data-name="Shape-7" class="cls-2" d="M250.2,16.65H0v-1H250.2Z"/><path id="Shape-8" class="cls-2" d="M250.2,45.77H0v-1H250.2Z"/><path id="Shape-10" class="cls-2" d="M250.2,75.77H0v-1H250.2Z"/><path id="Shape-24-2" data-name="Shape-24" class="cls-3" d="M250.2,16.65H0v-1H250.2Z"/><g class="cls-4"><path id="Shape-13" class="cls-2" d="M8.44-172.33V0h1V-172.33Z"/><path id="Shape-13-2" data-name="Shape-13" class="cls-2" d="M34.42-172.33V0h1V-172.33Z"/><path id="Shape-13-3" data-name="Shape-13" class="cls-2" d="M60.39-172.33V0h1V-172.33Z"/><path id="Shape-13-4" data-name="Shape-13" class="cls-2" d="M86.37-172.33V0h1V-172.33Z"/><path id="Shape-13-5" data-name="Shape-13" class="cls-2" d="M112.35-172.33V0h1V-172.33Z"/><path id="Shape-13-6" data-name="Shape-13" class="cls-2" d="M138.32-172.33V0h1V-172.33Z"/><path id="Shape-13-7" data-name="Shape-13" class="cls-2" d="M164.3-172.33V0h1V-172.33Z"/><path id="Shape-13-8" data-name="Shape-13" class="cls-2" d="M190.28-172.33V0h1V-172.33Z"/><path id="Shape-13-9" data-name="Shape-13" class="cls-2" d="M216.25-172.33V0h1V-172.33Z"/><path id="Shape-13-10" data-name="Shape-13" class="cls-2" d="M242.23-172.33V0h1V-172.33Z"/><path id="Shape-13-11" data-name="Shape-13" class="cls-2" d="M9.42,0V172.33h-1V0Z"/><path id="Shape-13-12" data-name="Shape-13" class="cls-2" d="M35.39,0V172.33h-1V0Z"/><path id="Shape-13-13" data-name="Shape-13" class="cls-2" d="M61.37,0V172.33h-1V0Z"/><path id="Shape-13-14" data-name="Shape-13" class="cls-2" d="M87.35,0V172.33h-1V0Z"/><path id="Shape-13-15" data-name="Shape-13" class="cls-2" d="M113.32,0V172.33h-1V0Z"/><path id="Shape-13-16" data-name="Shape-13" class="cls-2" d="M139.3,0V172.33h-1V0Z"/><path id="Shape-13-17" data-name="Shape-13" class="cls-2" d="M165.28,0V172.33h-1V0Z"/><path id="Shape-13-18" data-name="Shape-13" class="cls-2" d="M191.26,0V172.33h-1V0Z"/><path id="Shape-13-19" data-name="Shape-13" class="cls-2" d="M217.23,0V172.33h-1V0Z"/><path id="Shape-13-20" data-name="Shape-13" class="cls-2" d="M243.21,0V172.33h-1V0Z"/></g></g><g id="Ebene_1" data-name="Ebene 1"><text class="cls-5" transform="translate(70.29 90.58)">6</text><circle id="Ellipse_142" data-name="Ellipse 142" class="cls-6" cx="22.12" cy="60.3" r="2.5"/><circle id="Ellipse_142-2" data-name="Ellipse 142" class="cls-6" cx="47.41" cy="67.8" r="2.5"/><circle id="Ellipse_142-3" data-name="Ellipse 142" class="cls-6" cx="73.78" cy="75.3" r="2.5"/><text class="cls-5" transform="translate(96.41 96.24)">5</text><circle id="Ellipse_142-4" data-name="Ellipse 142" class="cls-6" cx="99.86" cy="80.96" r="2.5"/><text class="cls-5" transform="translate(122.32 90.58)">4</text><circle id="Ellipse_142-5" data-name="Ellipse 142" class="cls-6" cx="125.78" cy="75.3" r="2.5"/><text class="cls-5" transform="translate(148.43 83.08)">3</text><circle id="Ellipse_142-6" data-name="Ellipse 142" class="cls-6" cx="151.67" cy="67.8" r="2.5"/><text class="cls-5" transform="translate(174.74 75.58)">2</text><text class="cls-5" transform="translate(226 14)">a</text><text class="cls-5" transform="translate(173.96 28.21)">b</text><circle id="Ellipse_142-7" data-name="Ellipse 142" class="cls-6" cx="203.27" cy="75.3" r="2.5"/><circle id="Ellipse_142-8" data-name="Ellipse 142" class="cls-6" cx="203.27" cy="75.3" r="2.5"/><circle id="Ellipse_142-9" data-name="Ellipse 142" class="cls-6" cx="229.72" cy="45.52" r="2.5"/><path id="Pfad_1824" data-name="Pfad 1824" class="cls-7" d="M61.17,60.3H242.46"/><polyline class="cls-8" points="22.13 60.3 47.41 67.8 73.78 75.3 99.86 80.97 125.78 75.3 151.67 67.8 177.9 60.3 203.28 75.3 229.72 45.28"/><circle id="Ellipse_142-10" data-name="Ellipse 142" class="cls-6" cx="177.9" cy="60.3" r="2.5"/><line class="cls-9" x1="229.72" y1="35.7" x2="229.72" y2="18.59"/><polygon class="cls-6" points="233.46 34.61 229.72 41.09 225.98 34.61 233.46 34.61"/><line class="cls-9" x1="177.68" y1="50.26" x2="177.68" y2="33.14"/><polygon class="cls-6" points="181.42 49.16 177.68 55.64 173.94 49.16 181.42 49.16"/></g></svg>