<svg xmlns="http://www.w3.org/2000/svg" xmlns:xlink="http://www.w3.org/1999/xlink" viewBox="0 0 363.1 102.85"><defs><style>.cls-1,.cls-11,.cls-7,.cls-8{fill:none;}.cls-2,.cls-3{fill:#fd591f;}.cls-10,.cls-2{opacity:0.35;}.cls-4{clip-path:url(#clip-path);}.cls-5{font-size:11px;font-family:Poppins-Regular, Poppins;}.cls-5,.cls-6{fill:#075063;}.cls-7{stroke:#84a8b0;stroke-dasharray:4 3;}.cls-11,.cls-8{stroke:#075063;}.cls-9{fill:#f95a2e;}.cls-11{stroke-width:0.75px;}</style><clipPath id="clip-path"><rect class="cls-1" x="8.44" width="354.66" height="102.85"/></clipPath></defs><g id="Ebene_2" data-name="Ebene 2"><path id="Shape-9" class="cls-2" d="M362.83,60.77H0v-1H362.83Z"/><path id="Shape-7" class="cls-2" d="M362.83,87.56H0v-1H362.83Z"/><path id="Shape-24" class="cls-3" d="M362.83,87.56H0v-1H362.83Z"/><path id="Shape-28" class="cls-2" d="M362.83,31H0V30H362.83Z"/><path id="Shape-7-2" data-name="Shape-7" class="cls-2" d="M362.83,16.65H0v-1H362.83Z"/><path id="Shape-8" class="cls-2" d="M362.83,45.77H0v-1H362.83Z"/><path id="Shape-10" class="cls-2" d="M362.83,75.77H0v-1H362.83Z"/><path id="Shape-24-2" data-name="Shape-24" class="cls-3" d="M362.83,16.65H0v-1H362.83Z"/><g class="cls-4"><path id="Shape-13" class="cls-2" d="M8.44-172.33V0h1V-172.33Z"/><path id="Shape-13-2" data-name="Shape-13" class="cls-2" d="M34.42-172.33V0h1V-172.33Z"/><path id="Shape-13-3" data-name="Shape-13" class="cls-2" d="M60.39-172.33V0h1V-172.33Z"/><path id="Shape-13-4" data-name="Shape-13" class="cls-2" d="M86.37-172.33V0h1V-172.33Z"/><path id="Shape-13-5" data-name="Shape-13" class="cls-2" d="M112.35-172.33V0h1V-172.33Z"/><path id="Shape-13-6" data-name="Shape-13" class="cls-2" d="M138.32-172.33V0h1V-172.33Z"/><path id="Shape-13-7" data-name="Shape-13" class="cls-2" d="M164.3-172.33V0h1V-172.33Z"/><path id="Shape-13-8" data-name="Shape-13" class="cls-2" d="M190.28-172.33V0h1V-172.33Z"/><path id="Shape-13-9" data-name="Shape-13" class="cls-2" d="M216.26-172.33V0h1V-172.33Z"/><path id="Shape-13-10" data-name="Shape-13" class="cls-2" d="M242.23-172.33V0h1V-172.33Z"/><path id="Shape-13-11" data-name="Shape-13" class="cls-2" d="M268.21-172.33V0h1V-172.33Z"/><path id="Shape-13-12" data-name="Shape-13" class="cls-2" d="M294.19-172.33V0h1V-172.33Z"/><path id="Shape-13-13" data-name="Shape-13" class="cls-2" d="M320.16-172.33V0h1V-172.33Z"/><path id="Shape-13-14" data-name="Shape-13" class="cls-2" d="M346.14-172.33V0h1V-172.33Z"/><path id="Shape-13-15" data-name="Shape-13" class="cls-2" d="M9.42,0V172.33h-1V0Z"/><path id="Shape-13-16" data-name="Shape-13" class="cls-2" d="M35.39,0V172.33h-1V0Z"/><path id="Shape-13-17" data-name="Shape-13" class="cls-2" d="M61.37,0V172.33h-1V0Z"/><path id="Shape-13-18" data-name="Shape-13" class="cls-2" d="M87.35,0V172.33h-1V0Z"/><path id="Shape-13-19" data-name="Shape-13" class="cls-2" d="M113.32,0V172.33h-1V0Z"/><path id="Shape-13-20" data-name="Shape-13" class="cls-2" d="M139.3,0V172.33h-1V0Z"/><path id="Shape-13-21" data-name="Shape-13" class="cls-2" d="M165.28,0V172.33h-1V0Z"/><path id="Shape-13-22" data-name="Shape-13" class="cls-2" d="M191.26,0V172.33h-1V0Z"/><path id="Shape-13-23" data-name="Shape-13" class="cls-2" d="M217.23,0V172.33h-1V0Z"/><path id="Shape-13-24" data-name="Shape-13" class="cls-2" d="M243.21,0V172.33h-1V0Z"/><path id="Shape-13-25" data-name="Shape-13" class="cls-2" d="M269.19,0V172.33h-1V0Z"/><path id="Shape-13-26" data-name="Shape-13" class="cls-2" d="M295.16,0V172.33h-1V0Z"/><path id="Shape-13-27" data-name="Shape-13" class="cls-2" d="M321.14,0V172.33h-1V0Z"/><path id="Shape-13-28" data-name="Shape-13" class="cls-2" d="M347.12,0V172.33h-1V0Z"/></g></g><g id="Ebene_1" data-name="Ebene 1"><text class="cls-5" transform="translate(70.29 90.58)">6</text><circle id="Ellipse_142" data-name="Ellipse 142" class="cls-6" cx="22.12" cy="60.3" r="2.5"/><circle id="Ellipse_142-2" data-name="Ellipse 142" class="cls-6" cx="47.41" cy="67.8" r="2.5"/><circle id="Ellipse_142-3" data-name="Ellipse 142" class="cls-6" cx="73.78" cy="75.3" r="2.5"/><text class="cls-5" transform="translate(96.41 96.24)">5</text><circle id="Ellipse_142-4" data-name="Ellipse 142" class="cls-6" cx="99.86" cy="80.96" r="2.5"/><text class="cls-5" transform="translate(122.32 90.58)">4</text><circle id="Ellipse_142-5" data-name="Ellipse 142" class="cls-6" cx="125.78" cy="75.3" r="2.5"/><text class="cls-5" transform="translate(148.43 83.08)">3</text><circle id="Ellipse_142-6" data-name="Ellipse 142" class="cls-6" cx="151.67" cy="67.8" r="2.5"/><text class="cls-5" transform="translate(174.74 75.58)">2</text><text class="cls-5" transform="translate(201.51 90.58)">1</text><circle id="Ellipse_142-7" data-name="Ellipse 142" class="cls-6" cx="203.27" cy="75.3" r="2.5"/><circle id="Ellipse_142-8" data-name="Ellipse 142" class="cls-6" cx="203.27" cy="75.3" r="2.5"/><circle id="Ellipse_142-9" data-name="Ellipse 142" class="cls-6" cx="229.72" cy="45.52" r="2.5"/><path id="Pfad_1824" data-name="Pfad 1824" class="cls-7" d="M61.17,60.3h285"/><circle id="Ellipse_142-10" data-name="Ellipse 142" class="cls-6" cx="255.46" cy="67.78" r="2.5"/><polyline class="cls-8" points="22.13 60.3 47.41 67.8 73.78 75.3 99.86 80.97 125.78 75.3 151.67 67.8 177.9 60.3 203.28 75.3 229.72 45.28 255.46 67.78 281.2 45.52 307.86 30.5"/><circle id="Ellipse_142-11" data-name="Ellipse 142" class="cls-6" cx="281.2" cy="45.6" r="2.5"/><path id="Pfad_1824-2" data-name="Pfad 1824" class="cls-7" d="M310.91,30.49h35.27"/><circle id="Ellipse_142-12" data-name="Ellipse 142" class="cls-6" cx="307.86" cy="30.5" r="2.5"/><circle id="Ellipse_142-13" data-name="Ellipse 142" class="cls-6" cx="177.9" cy="60.3" r="2.5"/><g id="Polygon_3" data-name="Polygon 3"><path class="cls-1" d="M229.72,55.07l-9.5-15h19Z"/><path class="cls-9" d="M229.72,53.2l7.68-12.13H222l7.68,12.13m0,1.87-9.5-15h19Z"/></g><g id="Polygon_4" data-name="Polygon 4"><path class="cls-1" d="M281.2,54.63l-9.5-15h19Z"/><path class="cls-9" d="M281.2,52.76l7.69-12.13H273.52l7.68,12.13m0,1.87-9.5-15h19Z"/></g><g id="Polygon_4-2" data-name="Polygon 4"><path class="cls-1" d="M307.86,39.63l-9.5-15h19Z"/><path class="cls-9" d="M307.86,37.76l7.69-12.13H300.18l7.68,12.13m0,1.87-9.5-15h19Z"/></g><g id="Gruppe_751" data-name="Gruppe 751" class="cls-10"><path id="Shape" class="cls-3" d="M320.72,35.79,295.38,60.06l-.68-.65L320,35.13Z"/><path id="Shape-2" class="cls-3" d="M319.62,31.16,295.38,54.38l-.68-.66L318.93,30.5Z"/><path id="Shape-3" class="cls-3" d="M312.82,32,295.38,48.69,294.7,48l17.43-16.71Z"/><path id="Shape-4" class="cls-3" d="M307.61,31.29,295.38,43l-.68-.66,12.23-11.72Z"/><path id="Shape-5" class="cls-3" d="M320.71,41.47,301.23,60.14l-.68-.65L320,40.82Z"/><path id="Shape-6" class="cls-3" d="M320.72,47.16,307,60.3l-.68-.65L320,46.5Z"/><path id="Shape-7-3" data-name="Shape-7" class="cls-3" d="M320.72,52.85l-7.58,7.26-.69-.66L320,52.19Z"/><path id="Shape-8-2" data-name="Shape-8" class="cls-3" d="M300.93,32l-5.55,5.32-.68-.65,5.55-5.32Z"/></g><line class="cls-11" x1="334.3" y1="54.56" x2="334.3" y2="36.36"/><polygon class="cls-6" points="338.04 53.47 334.3 59.94 330.56 53.47 338.04 53.47"/><polygon class="cls-6" points="338.04 37.45 334.3 30.98 330.56 37.45 338.04 37.45"/></g></svg>