<svg xmlns="http://www.w3.org/2000/svg" xmlns:xlink="http://www.w3.org/1999/xlink" viewBox="0 0 305.31 102.85"><defs><style>.cls-1,.cls-10,.cls-6,.cls-9{fill:none;}.cls-2,.cls-3{fill:#fd591f;}.cls-2,.cls-5{opacity:0.35;}.cls-4{clip-path:url(#clip-path);}.cls-6{stroke:#84a8b0;stroke-dasharray:4 3;}.cls-7{font-size:11px;font-family:Poppins-Regular, Poppins;}.cls-7,.cls-8{fill:#075063;}.cls-10,.cls-9{stroke:#075063;}.cls-10{stroke-width:0.75px;}</style><clipPath id="clip-path"><rect class="cls-1" x="8.44" width="296.87" height="102.85"/></clipPath></defs><g id="Ebene_2" data-name="Ebene 2"><path id="Shape-9" class="cls-2" d="M305.31,60.77H0v-1H305.31Z"/><path id="Shape-7" class="cls-2" d="M305.31,87.56H0v-1H305.31Z"/><path id="Shape-24" class="cls-3" d="M305.31,87.56H0v-1H305.31Z"/><path id="Shape-28" class="cls-2" d="M305.31,31H0V30H305.31Z"/><path id="Shape-7-2" data-name="Shape-7" class="cls-2" d="M305.31,16.65H0v-1H305.31Z"/><path id="Shape-8" class="cls-2" d="M305.31,45.77H0v-1H305.31Z"/><path id="Shape-10" class="cls-2" d="M305.31,75.77H0v-1H305.31Z"/><path id="Shape-24-2" data-name="Shape-24" class="cls-3" d="M305.31,16.65H0v-1H305.31Z"/><g class="cls-4"><path id="Shape-13" class="cls-2" d="M8.44-172.33V0h1V-172.33Z"/><path id="Shape-13-2" data-name="Shape-13" class="cls-2" d="M34.42-172.33V0h1V-172.33Z"/><path id="Shape-13-3" data-name="Shape-13" class="cls-2" d="M60.39-172.33V0h1V-172.33Z"/><path id="Shape-13-4" data-name="Shape-13" class="cls-2" d="M86.37-172.33V0h1V-172.33Z"/><path id="Shape-13-5" data-name="Shape-13" class="cls-2" d="M112.35-172.33V0h1V-172.33Z"/><path id="Shape-13-6" data-name="Shape-13" class="cls-2" d="M138.32-172.33V0h1V-172.33Z"/><path id="Shape-13-7" data-name="Shape-13" class="cls-2" d="M164.3-172.33V0h1V-172.33Z"/><path id="Shape-13-8" data-name="Shape-13" class="cls-2" d="M190.28-172.33V0h1V-172.33Z"/><path id="Shape-13-9" data-name="Shape-13" class="cls-2" d="M216.26-172.33V0h1V-172.33Z"/><path id="Shape-13-10" data-name="Shape-13" class="cls-2" d="M242.23-172.33V0h1V-172.33Z"/><path id="Shape-13-11" data-name="Shape-13" class="cls-2" d="M268.21-172.33V0h1V-172.33Z"/><path id="Shape-13-12" data-name="Shape-13" class="cls-2" d="M294.19-172.33V0h1V-172.33Z"/><path id="Shape-13-13" data-name="Shape-13" class="cls-2" d="M9.42,0V172.33h-1V0Z"/><path id="Shape-13-14" data-name="Shape-13" class="cls-2" d="M35.39,0V172.33h-1V0Z"/><path id="Shape-13-15" data-name="Shape-13" class="cls-2" d="M61.37,0V172.33h-1V0Z"/><path id="Shape-13-16" data-name="Shape-13" class="cls-2" d="M87.35,0V172.33h-1V0Z"/><path id="Shape-13-17" data-name="Shape-13" class="cls-2" d="M113.32,0V172.33h-1V0Z"/><path id="Shape-13-18" data-name="Shape-13" class="cls-2" d="M139.3,0V172.33h-1V0Z"/><path id="Shape-13-19" data-name="Shape-13" class="cls-2" d="M165.28,0V172.33h-1V0Z"/><path id="Shape-13-20" data-name="Shape-13" class="cls-2" d="M191.26,0V172.33h-1V0Z"/><path id="Shape-13-21" data-name="Shape-13" class="cls-2" d="M217.23,0V172.33h-1V0Z"/><path id="Shape-13-22" data-name="Shape-13" class="cls-2" d="M243.21,0V172.33h-1V0Z"/><path id="Shape-13-23" data-name="Shape-13" class="cls-2" d="M269.19,0V172.33h-1V0Z"/><path id="Shape-13-24" data-name="Shape-13" class="cls-2" d="M295.16,0V172.33h-1V0Z"/></g></g><g id="Ebene_1" data-name="Ebene 1"><g id="Gruppe_751" data-name="Gruppe 751" class="cls-5"><path id="Shape" class="cls-3" d="M294.66,35.67,269.33,60l-.69-.66L294,35Z"/><path id="Shape-2" class="cls-3" d="M293.56,31,269.33,54.26l-.69-.65,24.24-23.23Z"/><path id="Shape-3" class="cls-3" d="M286.76,31.87l-17.43,16.7-.69-.65,17.44-16.71Z"/><path id="Shape-4" class="cls-3" d="M281.56,31.17,269.33,42.89l-.69-.66,12.23-11.72Z"/><path id="Shape-5" class="cls-3" d="M294.66,41.36,275.18,60l-.69-.66L294,40.7Z"/><path id="Shape-6" class="cls-3" d="M294.66,47,281,60.18l-.69-.65L294,46.39Z"/><path id="Shape-7-3" data-name="Shape-7" class="cls-3" d="M294.66,52.73,287.08,60l-.68-.66L294,52.07Z"/><path id="Shape-8-2" data-name="Shape-8" class="cls-3" d="M274.88,31.88l-5.55,5.32-.69-.65,5.55-5.32Z"/></g><path id="Pfad_1824" data-name="Pfad 1824" class="cls-6" d="M269.13,30.51h25.06"/><text class="cls-7" transform="translate(70.29 90.58)">6</text><circle id="Ellipse_142" data-name="Ellipse 142" class="cls-8" cx="47.41" cy="67.8" r="2.5"/><circle id="Ellipse_142-2" data-name="Ellipse 142" class="cls-8" cx="22.12" cy="60.3" r="2.5"/><circle id="Ellipse_142-3" data-name="Ellipse 142" class="cls-8" cx="73.78" cy="75.3" r="2.5"/><text class="cls-7" transform="translate(96.41 96.24)">5</text><circle id="Ellipse_142-4" data-name="Ellipse 142" class="cls-8" cx="99.86" cy="80.96" r="2.5"/><text class="cls-7" transform="translate(122.32 90.58)">4</text><circle id="Ellipse_142-5" data-name="Ellipse 142" class="cls-8" cx="125.78" cy="75.3" r="2.5"/><text class="cls-7" transform="translate(148.43 83.08)">3</text><circle id="Ellipse_142-6" data-name="Ellipse 142" class="cls-8" cx="151.67" cy="67.8" r="2.5"/><text class="cls-7" transform="translate(174.74 75.58)">2</text><text class="cls-7" transform="translate(201.51 90.58)">1</text><circle id="Ellipse_142-7" data-name="Ellipse 142" class="cls-8" cx="203.27" cy="75.3" r="2.5"/><circle id="Ellipse_142-8" data-name="Ellipse 142" class="cls-8" cx="203.27" cy="75.3" r="2.5"/><circle id="Ellipse_142-9" data-name="Ellipse 142" class="cls-8" cx="229.72" cy="45.52" r="2.5"/><path id="Pfad_1824-2" data-name="Pfad 1824" class="cls-6" d="M61.17,60.3h233"/><polyline class="cls-9" points="22.13 60.3 47.41 67.8 73.78 75.3 99.86 80.97 125.78 75.3 151.67 67.8 177.9 60.3 203.28 75.3 229.72 45.28 255.46 53.43 282.7 30.63"/><circle id="Ellipse_142-10" data-name="Ellipse 142" class="cls-8" cx="282.7" cy="30.49" r="2.5"/><circle id="Ellipse_142-11" data-name="Ellipse 142" class="cls-8" cx="255.46" cy="53.43" r="2.5"/><circle id="Ellipse_142-12" data-name="Ellipse 142" class="cls-8" cx="177.9" cy="60.3" r="2.5"/><line class="cls-10" x1="282.7" y1="20.6" x2="282.7" y2="3.49"/><polygon class="cls-8" points="286.44 19.51 282.7 25.99 278.96 19.51 286.44 19.51"/></g></svg>