<?xml version="1.0" encoding="utf-8"?>
<!-- Generator: Adobe Illustrator 25.2.1, SVG Export Plug-In . SVG Version: 6.00 Build 0)  -->
<svg version="1.1" xmlns="http://www.w3.org/2000/svg" xmlns:xlink="http://www.w3.org/1999/xlink" x="0px" y="0px"
	 viewBox="0 0 410 73.3" style="enable-background:new 0 0 410 73.3;" xml:space="preserve">
<style type="text/css">
	.st0{opacity:0.35;fill:#FD591F;}
	.st1{clip-path:url(#SVGID_2_);}
	.st2{fill:#FD591F;}
	.st3{clip-path:url(#SVGID_4_);}
	.st4{clip-path:url(#SVGID_6_);}
	.st5{clip-path:url(#SVGID_8_);}
	.st6{clip-path:url(#SVGID_10_);}
	.st7{clip-path:url(#SVGID_12_);}
	.st8{clip-path:url(#SVGID_14_);}
	.st9{clip-path:url(#SVGID_16_);}
	.st10{clip-path:url(#SVGID_18_);}
	.st11{fill:#F95A2E;}
	.st12{font-family:'Poppins-Regular';}
	.st13{font-size:9px;}
	.st14{fill:none;stroke:#F95A2E;}
	.st15{clip-path:url(#SVGID_20_);}
	.st16{clip-path:url(#SVGID_22_);}
	.st17{opacity:0.502;fill:#F3D7C8;enable-background:new    ;}
	.st18{fill:#F3D7C8;}
	.st19{opacity:0.35;}
	.st20{fill:none;stroke:#FD591F;}
	.st21{fill:none;stroke:#075063;}
	.st22{fill:#075063;}
	.st23{opacity:0.3;fill:#075063;enable-background:new    ;}
	.st24{fill:#DC000C;stroke:#DC000C;stroke-miterlimit:10;}
	.st25{fill:none;stroke:#DC000C;stroke-miterlimit:10;}
	.st26{fill:none;}
	.st27{fill:#84A9B2;}
	.st28{fill:#FFFFFF;}
	.st29{fill:none;stroke:#84A9B2;}
	.st30{fill:#B61747;}
	.st31{fill:#DC000C;}
	.st32{clip-path:url(#SVGID_24_);}
	.st33{fill:none;stroke:#84A8B0;stroke-dasharray:4,3;}
	.st34{fill:none;stroke:#075063;stroke-width:0.75;}
	.st35{fill:none;stroke:#075063;stroke-width:0.5;stroke-miterlimit:10;}
	.st36{fill:none;stroke:#075063;stroke-width:0.75;stroke-miterlimit:10;}
</style>
<g id="Ebene_2">
	<path id="Shape-10_22_" class="st0" d="M402.2,37.8H0v-1h402.2V37.8z"/>
	<path id="Shape-10_16_" class="st0" d="M402.2,66.8H0v-1h402.2V66.8z"/>
	<path id="Shape-10_12_" class="st2" d="M402.3,52.2H0.2v-1h402.2V52.2z"/>
	<path id="Shape-10_11_" class="st0" d="M402.2,23.4H0v-1h402.2V23.4z"/>
	<path id="Shape-10_4_" class="st0" d="M402.5,8.9H0.3V8h402.2V8.9z"/>
	<g>
		<defs>
			<rect id="SVGID_3_" x="6.3" width="403.7" height="73.3"/>
		</defs>
		<clipPath id="SVGID_2_">
			<use xlink:href="#SVGID_3_"  style="overflow:visible;"/>
		</clipPath>
		<g class="st1">
			<g>
				<path id="Shape-13_302_" class="st0" d="M6.3-172.3V0h1v-172.3H6.3z"/>
			</g>
			<g>
				<path id="Shape-13_301_" class="st0" d="M32.3-172.3V0h1v-172.3H32.3z"/>
			</g>
			<g>
				<path id="Shape-13_300_" class="st0" d="M58.3-172.3V0h1v-172.3H58.3z"/>
			</g>
			<g>
				<path id="Shape-13_299_" class="st0" d="M84.2-172.3V0h1v-172.3H84.2z"/>
			</g>
			<g>
				<path id="Shape-13_298_" class="st0" d="M110.2-172.3V0h1v-172.3H110.2z"/>
			</g>
			<g>
				<path id="Shape-13_297_" class="st0" d="M136.2-172.3V0h1v-172.3H136.2z"/>
			</g>
			<g>
				<path id="Shape-13_296_" class="st0" d="M162.2-172.3V0h1v-172.3H162.2z"/>
			</g>
			<g>
				<path id="Shape-13_295_" class="st0" d="M188.2-172.3V0h1v-172.3H188.2z"/>
			</g>
			<g>
				<path id="Shape-13_294_" class="st0" d="M214.1-172.3V0h1v-172.3H214.1z"/>
			</g>
			<g>
				<path id="Shape-13_293_" class="st0" d="M240.1-172.3V0h1v-172.3H240.1z"/>
			</g>
			<g>
				<path id="Shape-13_292_" class="st0" d="M266.1-172.3V0h1v-172.3H266.1z"/>
			</g>
			<g>
				<path id="Shape-13_291_" class="st0" d="M292.1-172.3V0h1v-172.3H292.1z"/>
			</g>
			<g>
				<path id="Shape-13_290_" class="st0" d="M318-172.3V0h1v-172.3H318z"/>
			</g>
			<g>
				<path id="Shape-13_289_" class="st0" d="M344-172.3V0h1v-172.3H344z"/>
			</g>
			<g>
				<path id="Shape-13_288_" class="st0" d="M370-172.3V0h1v-172.3H370z"/>
			</g>
			<g>
				<path id="Shape-13_287_" class="st0" d="M396-172.3V0h1v-172.3H396z"/>
			</g>
			<g>
				<path id="Shape-13_283_" class="st0" d="M7.3,0v172.3h-1V0H7.3z"/>
			</g>
			<g>
				<path id="Shape-13_282_" class="st0" d="M33.3,0v172.3h-1V0H33.3z"/>
			</g>
			<g>
				<path id="Shape-13_281_" class="st0" d="M59.2,0v172.3h-1V0H59.2z"/>
			</g>
			<g>
				<path id="Shape-13_280_" class="st0" d="M85.2,0v172.3h-1V0H85.2z"/>
			</g>
			<g>
				<path id="Shape-13_279_" class="st0" d="M111.2,0v172.3h-1V0H111.2z"/>
			</g>
			<g>
				<path id="Shape-13_278_" class="st0" d="M137.2,0v172.3h-1V0H137.2z"/>
			</g>
			<g>
				<path id="Shape-13_277_" class="st0" d="M163.2,0v172.3h-1V0H163.2z"/>
			</g>
			<g>
				<path id="Shape-13_276_" class="st0" d="M189.1,0v172.3h-1V0H189.1z"/>
			</g>
			<g>
				<path id="Shape-13_275_" class="st0" d="M215.1,0v172.3h-1V0H215.1z"/>
			</g>
			<g>
				<path id="Shape-13_274_" class="st0" d="M241.1,0v172.3h-1V0H241.1z"/>
			</g>
			<g>
				<path id="Shape-13_273_" class="st0" d="M267.1,0v172.3h-1V0H267.1z"/>
			</g>
			<g>
				<path id="Shape-13_272_" class="st0" d="M293,0v172.3h-1V0H293z"/>
			</g>
			<g>
				<path id="Shape-13_271_" class="st0" d="M319,0v172.3h-1V0H319z"/>
			</g>
			<g>
				<path id="Shape-13_270_" class="st0" d="M345,0v172.3h-1V0H345z"/>
			</g>
			<g>
				<path id="Shape-13_269_" class="st0" d="M371,0v172.3h-1V0H371z"/>
			</g>
			<g>
				<path id="Shape-13_268_" class="st0" d="M396.9,0v172.3h-1V0H396.9z"/>
			</g>
		</g>
	</g>
	<g id="Gruppe_732_1_" transform="translate(-340.766 -254.5)">
		<text transform="matrix(1 0 0 1 592.0795 302.5474)" class="st11 st12 st13">O</text>
		<line id="Linie_66_1_" class="st14" x1="599" y1="296.5" x2="592.2" y2="302.5"/>
	</g>
	<g id="Gruppe_732_4_" transform="translate(-340.766 -254.5)">
		<text transform="matrix(1 0 0 1 617.0795 302.5474)" class="st11 st12 st13">O</text>
		<line id="Linie_66_4_" class="st14" x1="624" y1="296.5" x2="617.2" y2="302.5"/>
	</g>
	<g id="Gruppe_732_5_" transform="translate(-340.766 -254.5)">
		<text transform="matrix(1 0 0 1 643.0795 302.5474)" class="st11 st12 st13">O</text>
		<line id="Linie_66_5_" class="st14" x1="650" y1="296.5" x2="643.2" y2="302.5"/>
	</g>
</g>
<g id="Ebene_1">
	<text transform="matrix(1 0 0 1 122.4233 48.1234)" class="st11 st12 st13">s</text>
	<text transform="matrix(1 0 0 1 146.6987 34.1234)" class="st11 st12 st13">+</text>
	<text transform="matrix(1 0 0 1 171.6987 34.1234)" class="st11 st12 st13">+</text>
	<text transform="matrix(1 0 0 1 198.6987 34.1234)" class="st11 st12 st13">+</text>
	<text transform="matrix(1 0 0 1 70.562 48.1234)" class="st11 st12 st13">f</text>
	<text transform="matrix(1 0 0 1 45.4042 48.1234)" class="st11 st12 st13">t</text>
	<text transform="matrix(1 0 0 1 95.9847 48.1233)" class="st11 st12 st13">s</text>
	<text transform="matrix(1 0 0 1 199.8049 48.1234)" class="st11 st12 st13">s</text>
	<text transform="matrix(1 0 0 1 147.7479 48.2206)" class="st11 st12 st13">s</text>
	<text transform="matrix(1 0 0 1 174.3663 48.1233)" class="st11 st12 st13">s</text>
	<text transform="matrix(1 0 0 1 226.6515 48.1233)" class="st11 st12 st13">s</text>
	<text transform="matrix(1 0 0 1 330.3624 48.1233)" class="st11 st12 st13">t</text>
	<text transform="matrix(1 0 0 1 356.3624 48.1233)" class="st11 st12 st13">t</text>
	<text transform="matrix(1 0 0 1 198.4834 18.8835)" class="st11 st12 st13">H</text>
	<text transform="matrix(1 0 0 1 227.1528 18.8835)" class="st11 st12 st13">1</text>
	<text transform="matrix(1 0 0 1 251.0054 18.8835)" class="st11 st12 st13">2</text>
	<text transform="matrix(1 0 0 1 277.9424 18.8835)" class="st11 st12 st13">3</text>
</g>
</svg>
